<svg width="119" height="23" viewBox="0 0 119 23" fill="none" xmlns="http://www.w3.org/2000/svg">
<path d="M6.9346 22.7861H20.0781V15.8515H6.9346V9.15884H0V15.8515L6.9346 22.7861Z" fill="url(#paint0_linear_4462_10223)"/>
<path d="M9.64285 0H24.1571V6.9346H9.64285L6.88024 13.6273L2.70825 13.6273V6.9346L9.64285 0Z" fill="url(#paint1_linear_4462_10223)"/>
<path d="M38.2054 20.0514C36.5383 20.0514 35.0498 19.7041 33.74 19.0094C32.45 18.295 31.4378 17.3225 30.7035 16.092C29.9692 14.8616 29.6021 13.4624 29.6021 11.8946C29.6021 10.3069 29.9692 8.90774 30.7035 7.69712C31.4378 6.46666 32.45 5.50412 33.74 4.8095C35.0498 4.11489 36.5383 3.76758 38.2054 3.76758C39.7534 3.76758 41.1128 4.08512 42.2838 4.72019C43.4745 5.33543 44.3775 6.24835 44.9928 7.45897L42.1349 9.12604C41.6586 8.37189 41.0731 7.8162 40.3785 7.45897C39.7038 7.10174 38.9694 6.92312 38.1756 6.92312C37.2627 6.92312 36.4391 7.12158 35.7047 7.5185C34.9704 7.91543 34.3949 8.49097 33.9781 9.24512C33.5614 9.97943 33.353 10.8626 33.353 11.8946C33.353 12.9266 33.5614 13.8197 33.9781 14.5738C34.3949 15.3081 34.9704 15.8737 35.7047 16.2707C36.4391 16.6676 37.2627 16.8661 38.1756 16.8661C38.9694 16.8661 39.7038 16.6874 40.3785 16.3302C41.0731 15.973 41.6586 15.4173 42.1349 14.6631L44.9928 16.3302C44.3775 17.521 43.4745 18.4438 42.2838 19.0987C41.1128 19.7338 39.7534 20.0514 38.2054 20.0514Z" fill="#112D6A"/>
<path d="M53.6331 20.0514C52.0057 20.0514 50.5569 19.7041 49.2867 19.0094C48.0166 18.295 47.0144 17.3225 46.28 16.092C45.5457 14.8616 45.1786 13.4624 45.1786 11.8946C45.1786 10.3069 45.5457 8.90774 46.28 7.69712C47.0144 6.46666 48.0166 5.50412 49.2867 4.8095C50.5569 4.11489 52.0057 3.76758 53.6331 3.76758C55.2803 3.76758 56.739 4.11489 58.0091 4.8095C59.2991 5.50412 60.3014 6.45673 61.0158 7.66735C61.7501 8.87797 62.1173 10.287 62.1173 11.8946C62.1173 13.4624 61.7501 14.8616 61.0158 16.092C60.3014 17.3225 59.2991 18.295 58.0091 19.0094C56.739 19.7041 55.2803 20.0514 53.6331 20.0514ZM53.6331 16.8661C54.546 16.8661 55.3597 16.6676 56.0741 16.2707C56.7886 15.8737 57.3443 15.2982 57.7412 14.544C58.158 13.7899 58.3664 12.9067 58.3664 11.8946C58.3664 10.8626 58.158 9.97943 57.7412 9.24512C57.3443 8.49097 56.7886 7.91543 56.0741 7.5185C55.3597 7.12158 54.5559 6.92312 53.6628 6.92312C52.7499 6.92312 51.9362 7.12158 51.2217 7.5185C50.5271 7.91543 49.9714 8.49097 49.5547 9.24512C49.1379 9.97943 48.9295 10.8626 48.9295 11.8946C48.9295 12.9067 49.1379 13.7899 49.5547 14.544C49.9714 15.2982 50.5271 15.8737 51.2217 16.2707C51.9362 16.6676 52.74 16.8661 53.6331 16.8661Z" fill="#112D6A"/>
<path d="M69.0991 20.0514C67.7694 20.0514 66.4893 19.8827 65.2589 19.5453C64.0483 19.1881 63.0857 18.7614 62.3713 18.2652L63.8002 15.4371C64.5146 15.8936 65.368 16.2707 66.3603 16.5684C67.3526 16.866 68.345 17.0149 69.3373 17.0149C70.5082 17.0149 71.3517 16.8561 71.8677 16.5386C72.4035 16.2211 72.6714 15.7944 72.6714 15.2585C72.6714 14.8219 72.4928 14.4944 72.1356 14.2761C71.7783 14.038 71.312 13.8594 70.7364 13.7403C70.1609 13.6212 69.5159 13.512 68.8014 13.4128C68.1068 13.3136 67.4023 13.1846 66.6878 13.0258C65.9932 12.8472 65.3581 12.5991 64.7826 12.2816C64.207 11.9442 63.7406 11.4977 63.3834 10.942C63.0262 10.3863 62.8476 9.65197 62.8476 8.73904C62.8476 7.72689 63.1353 6.85366 63.7109 6.11935C64.2864 5.3652 65.0902 4.78966 66.1222 4.39273C67.174 3.97596 68.4144 3.76758 69.8433 3.76758C70.915 3.76758 71.9967 3.88666 73.0882 4.12481C74.1797 4.36296 75.0827 4.70035 75.7972 5.13696L74.3683 7.96504C73.6141 7.50858 72.85 7.20097 72.076 7.0422C71.3219 6.86358 70.5677 6.77427 69.8136 6.77427C68.6823 6.77427 67.8389 6.94297 67.2832 7.28035C66.7473 7.61774 66.4794 8.04443 66.4794 8.56043C66.4794 9.03674 66.658 9.39397 67.0153 9.63212C67.3725 9.87028 67.8389 10.0588 68.4144 10.1977C68.99 10.3367 69.625 10.4557 70.3196 10.555C71.0341 10.6344 71.7387 10.7634 72.4333 10.942C73.1279 11.1206 73.763 11.3687 74.3385 11.6862C74.9339 11.9839 75.4102 12.4106 75.7674 12.9663C76.1247 13.522 76.3033 14.2464 76.3033 15.1394C76.3033 16.1317 76.0056 16.9951 75.4102 17.7294C74.8347 18.4637 74.011 19.0392 72.9393 19.456C71.8677 19.8529 70.5876 20.0514 69.0991 20.0514Z" fill="#112D6A"/>
<path d="M78.0194 19.843V3.94619H81.7406V19.843H78.0194Z" fill="#112D6A"/>
<path d="M94.1562 3.76758C95.4264 3.76758 96.5576 4.01566 97.5499 4.51181C98.5621 5.00796 99.3559 5.77204 99.9315 6.80404C100.507 7.8162 100.795 9.12604 100.795 10.7336V19.843H97.0736V11.2099C97.0736 9.80081 96.7362 8.74897 96.0615 8.05435C95.4065 7.35973 94.4837 7.01243 93.2929 7.01243C92.4197 7.01243 91.6457 7.19104 90.9709 7.54827C90.2961 7.9055 89.7702 8.44135 89.3931 9.15581C89.0359 9.85043 88.8573 10.7336 88.8573 11.8053V19.843H85.1361V3.94619H88.6787V8.23297L88.0535 6.92312C88.6092 5.91096 89.413 5.13696 90.4648 4.60112C91.5365 4.04542 92.767 3.76758 94.1562 3.76758Z" fill="#112D6A"/>
<path d="M111.528 20.0514C109.762 20.0514 108.214 19.7041 106.884 19.0094C105.574 18.295 104.552 17.3225 103.818 16.092C103.103 14.8616 102.746 13.4624 102.746 11.8946C102.746 10.3069 103.093 8.90774 103.788 7.69712C104.502 6.46666 105.475 5.50412 106.705 4.8095C107.956 4.11489 109.375 3.76758 110.962 3.76758C112.51 3.76758 113.89 4.10496 115.1 4.77973C116.311 5.4545 117.264 6.40712 117.958 7.63758C118.653 8.86804 119 10.3168 119 11.9839C119 12.1427 118.99 12.3213 118.97 12.5197C118.97 12.7182 118.96 12.9067 118.941 13.0854H105.693V10.6145H116.976L115.517 11.3885C115.537 10.4756 115.348 9.67181 114.951 8.9772C114.555 8.28258 114.009 7.73681 113.314 7.33989C112.639 6.94297 111.855 6.7445 110.962 6.7445C110.049 6.7445 109.246 6.94297 108.551 7.33989C107.876 7.73681 107.34 8.29251 106.944 9.00697C106.566 9.70158 106.378 10.5252 106.378 11.4778V12.0732C106.378 13.0258 106.596 13.8693 107.033 14.6036C107.469 15.3379 108.085 15.9035 108.879 16.3004C109.672 16.6974 110.585 16.8958 111.617 16.8958C112.51 16.8958 113.314 16.7569 114.029 16.4791C114.743 16.2012 115.378 15.7646 115.934 15.1692L117.928 17.4614C117.214 18.295 116.311 18.94 115.219 19.3964C114.148 19.8331 112.917 20.0514 111.528 20.0514Z" fill="#112D6A"/>
<defs>
<linearGradient id="paint0_linear_4462_10223" x1="20.8812" y1="22.7861" x2="-1.61971" y2="12.1648" gradientUnits="userSpaceOnUse">
<stop stop-color="#2563EB"/>
<stop offset="1" stop-color="#164CC1"/>
</linearGradient>
<linearGradient id="paint1_linear_4462_10223" x1="25.0151" y1="-2.45316e-09" x2="1.58094" y2="11.8171" gradientUnits="userSpaceOnUse">
<stop stop-color="#2563EB"/>
<stop offset="1" stop-color="#164CC1"/>
</linearGradient>
</defs>
</svg>
